HIERARCHY
ROOT hip
{
	OFFSET 0.000000 0.000000 0.000000 
	CHANNELS 6 Xposition Yposition Zposition Xrotation Zrotation Yrotation
	JOINT abdomen
	{
		OFFSET 0.000000 3.402643 0.000000 
		CHANNELS 3 Xrotation Zrotation Yrotation
		JOINT chest
		{
			OFFSET 0.000000 8.438565 -0.680529 
			CHANNELS 3 Xrotation Zrotation Yrotation
			JOINT neck
			{
				OFFSET 0.000000 10.207942 -0.272212 
				CHANNELS 3 Xrotation Zrotation Yrotation
				JOINT head
				{
					OFFSET 0.000000 3.130431 0.000000 
					CHANNELS 3 Xrotation Zrotation Yrotation
					End Site
					{
						OFFSET 0.000000 3.130435 0.000000 
					}
				}
			}
			JOINT lCollar
			{
				OFFSET 3.470700 6.669187 -0.816635 
				CHANNELS 3 Zrotation Yrotation Xrotation
				JOINT lShldr
				{
					OFFSET 3.198488 0.000000 0.000000 
					CHANNELS 3 Zrotation Yrotation Xrotation
					JOINT lForeArm
					{
						OFFSET 10.139888 0.000000 0.000000 
						CHANNELS 3 Yrotation Zrotation Xrotation
						JOINT lHand
						{
							OFFSET 8.370511 0.000000 0.000000 
							CHANNELS 3 Zrotation Yrotation Xrotation
							End Site
							{
								OFFSET 4.083176 0.000000 0.000000 
							}
						}
					}
				}
			}
			JOINT rCollar
			{
				OFFSET -3.470700 6.669187 -0.816635 
				CHANNELS 3 Zrotation Yrotation Xrotation
				JOINT rShldr
				{
					OFFSET -3.198488 0.000000 0.000000 
					CHANNELS 3 Zrotation Yrotation Xrotation
					JOINT rForeArm
					{
						OFFSET -10.139888 0.000000 0.000000 
						CHANNELS 3 Yrotation Zrotation Xrotation
						JOINT rHand
						{
							OFFSET -8.370511 0.000000 0.000000 
							CHANNELS 3 Zrotation Yrotation Xrotation
							End Site
							{
								OFFSET -4.083176 0.000000 0.000000 
							}
						}
					}
				}
			}
		}
	}
	JOINT lThigh
	{
		OFFSET 5.308129 -1.633274 1.361059 
		CHANNELS 3 Xrotation Zrotation Yrotation
		JOINT lShin
		{
			OFFSET -2.041588 -20.007561 0.000000 
			CHANNELS 3 Xrotation Zrotation Yrotation
			JOINT lFoot
			{
				OFFSET 0.000000 -19.190928 -1.224953 
				CHANNELS 3 Xrotation Yrotation Zrotation
				End Site
				{
					OFFSET 0.000000 -2.449906 4.627600 
				}
			}
		}
	}
	JOINT rThigh
	{
		OFFSET -5.308129 -1.633274 1.361059 
		CHANNELS 3 Xrotation Zrotation Yrotation
		JOINT rShin
		{
			OFFSET 2.041588 -20.007561 0.000000 
			CHANNELS 3 Xrotation Zrotation Yrotation
			JOINT rFoot
			{
				OFFSET 0.000000 -19.190928 -1.224953 
				CHANNELS 3 Xrotation Yrotation Zrotation
				End Site
				{
					OFFSET 0.000000 -2.449906 4.627600 
				}
			}
		}
	}
}
MOTION
Frames: 20
Frame Time: 0.016667
0.320492 53.813259 -1.445423 -8.112153 2.606743 7.117081 26.442659 -1.858765 -1.729876 -0.875378 2.097499 -3.897979 -5.810609 0.487169 -0.044078 12.498955 -3.138996 3.403493 -7.177953 -7.823087 0.605273 -66.918030 14.012116 -20.381802 -22.234303 -5.000000 34.443489 -20.560425 -1.861780 16.132996 8.659994 7.395797 0.661094 68.754875 -8.698507 -15.996663 22.255075 5.000000 27.961473 20.209377 -17.945120 -3.463687 15.259391 5.583948 -4.421751 -0.340467 -5.003005 -0.165470 -7.784163 7.644215 -1.869499 18.566090 -6.589546 -3.631218 0.078420 2.313290 -0.007596 -7.307195 -18.858145 5.481061 
0.320492 53.813259 -1.451302 -8.113487 2.606908 7.087815 26.442955 -1.879067 -1.674335 -0.873711 2.068248 -3.858926 -5.820325 0.536909 -0.041727 12.542336 -3.129467 3.334703 -7.119718 -7.872152 0.606316 -66.941490 13.999384 -20.356113 -22.166470 -5.000000 34.462612 -20.447100 -1.934441 16.286131 8.650022 7.366445 0.651760 68.754532 -8.688957 -15.967292 22.259348 5.000000 27.976839 20.281530 -17.909739 -3.512864 15.259391 5.583950 -4.421751 -0.350102 -5.001747 -0.135423 -7.788228 7.644177 -1.837592 18.554951 -6.589150 -3.611498 0.087774 2.313118 0.002341 -7.341213 -18.894279 5.460741 
0.320492 53.813259 -1.458358 -8.115900 2.587527 7.087371 26.433504 -1.851074 -1.662678 -0.861853 2.029240 -3.829638 -5.810597 0.585188 -0.049031 12.565070 -3.129652 3.276197 -7.061308 -7.911533 0.606071 -66.964958 13.986678 -20.332781 -22.135536 -5.000000 34.462029 -20.401102 -1.950203 16.367605 8.630793 7.346760 0.652695 68.774025 -8.669894 -15.947490 22.243483 5.000000 28.007679 20.315807 -17.864580 -3.528798 15.243886 5.604774 -4.387934 -0.340443 -5.012386 -0.145756 -7.801727 7.592336 -1.839673 18.553606 -6.591672 -3.601268 0.097878 2.322325 -0.006614 -7.327256 -18.876293 5.491445 
0.320492 53.813259 -1.466199 -8.118312 2.568144 7.087371 26.433020 -1.818332 -1.638847 -0.848901 1.980505 -3.780490 -5.810632 0.623811 -0.054875 12.568291 -3.120053 3.227443 -7.012572 -7.941123 0.605412 -66.977982 13.964574 -20.299662 -22.135958 -5.000000 34.435955 -20.390978 -1.923689 16.418961 8.620747 7.327174 0.643385 68.793991 -8.640927 -15.947141 22.214079 5.000000 28.058178 20.322502 -17.809103 -3.511520 15.227843 5.622112 -4.383434 -0.350105 -5.011531 -0.135217 -7.784658 7.564766 -1.841705 18.538113 -6.580333 -3.629302 0.097545 2.342529 0.031702 -7.299971 -18.857964 5.472489 
0.320099 53.813660 -1.474428 -8.109316 2.558399 7.097125 26.422871 -1.778663 -1.633020 -0.837180 1.951265 -3.751209 -5.800794 0.663894 -0.051063 12.569888 -3.120143 3.197657 -6.975035 -7.969427 0.615154 -66.981590 13.945869 -20.264175 -22.124929 -5.000000 34.421242 -20.383139 -1.909443 16.464378 8.600863 7.327042 0.634617 68.813316 -8.621938 -15.917571 22.182743 5.000000 28.082140 20.314606 -17.748041 -3.505710 15.212264 5.642910 -4.349623 -0.330748 -5.012821 -0.136787 -7.780543 7.559599 -1.812906 18.510136 -6.571119 -3.627390 0.107648 2.351856 0.032520 -7.260899 -18.854818 5.479650 
0.318138 53.815617 -1.484225 -8.088913 2.558291 7.116637 26.393919 -1.767704 -1.659405 -0.838033 1.970778 -3.751207 -5.800769 0.634927 -0.046573 12.586721 -3.139554 3.227442 -6.984882 -7.969322 0.616004 -66.958778 13.932158 -20.236673 -22.099495 -5.000000 34.429516 -20.357996 -1.935530 16.531086 8.561813 7.365798 0.636687 68.832321 -8.612780 -15.878317 22.165333 5.000000 28.051111 20.207024 -17.698318 -3.511896 15.182833 5.633230 -4.380517 -0.330751 -5.003037 -0.136991 -7.736805 7.623888 -1.828283 18.487642 -6.550196 -3.653005 0.108022 2.322514 0.033025 -7.317161 -18.853363 5.514163 
0.316180 53.817577 -1.494019 -8.068072 2.558127 7.145905 26.384226 -1.760716 -1.677127 -0.839313 2.000047 -3.741437 -5.800858 0.614155 -0.053414 12.613839 -3.158993 3.246942 -7.004577 -7.969114 0.617704 -66.945419 13.915051 -20.211527 -22.065594 -5.000000 34.437489 -20.332932 -1.961678 16.598099 8.522843 7.394793 0.638731 68.851158 -8.603695 -15.829296 22.141314 5.000000 28.011019 20.112576 -17.644728 -3.529994 15.119123 5.631793 -4.418292 -0.312211 -5.004003 -0.128812 -7.698472 7.681269 -1.847313 18.454849 -6.552051 -3.633304 0.127040 2.311450 0.014808 -7.314568 -18.864391 5.540966 
0.317356 53.817966 -1.500678 -8.060739 2.538747 7.145904 26.384295 -1.720162 -1.671211 -0.868950 2.000032 -3.770728 -5.761761 0.575532 -0.047571 12.631774 -3.149120 3.285947 -7.004910 -7.988499 0.620062 -66.945107 13.954803 -20.205137 -22.085894 -5.000000 34.397293 -20.325083 -1.999251 16.619663 8.473969 7.453008 0.641343 68.879601 -8.614227 -15.790127 22.155170 5.000000 27.956026 20.112362 -17.702732 -3.570848 15.127040 5.643916 -4.386270 -0.320805 -5.003871 -0.147529 -7.703675 7.660768 -1.857145 18.419369 -6.531072 -3.599698 0.126996 2.310828 -0.024249 -7.340975 -18.880089 5.521208 
0.319315 53.817966 -1.506553 -8.063169 2.519367 7.145902 26.394094 -1.683097 -1.656425 -0.908013 2.000032 -3.790259 -5.712896 0.527253 -0.040266 12.650291 -3.129498 3.324952 -7.005077 -7.998191 0.621241 -66.952782 13.987354 -20.189878 -22.117626 -5.000000 34.345753 -20.316929 -2.040221 16.632059 8.415411 7.511150 0.644447 68.898460 -8.624530 -15.760779 22.177910 5.000000 27.896484 20.147076 -17.773849 -3.639019 15.126849 5.673498 -4.391358 -0.311014 -5.004275 -0.138559 -7.694210 7.655831 -1.902948 18.422052 -6.522317 -3.587411 0.136707 2.310587 -0.004538 -7.345582 -18.898600 5.510137 
0.319706 53.817966 -1.510861 -8.064385 2.509678 7.145900 26.403616 -1.668498 -1.640217 -0.947076 2.000032 -3.800025 -5.673814 0.498286 -0.035798 12.668261 -3.119625 3.363957 -7.004048 -8.018767 0.614000 -66.952454 14.027107 -20.183493 -22.140499 -5.000000 34.320030 -20.303162 -2.066895 16.628918 8.366692 7.549839 0.647008 68.936821 -8.625461 -15.721474 22.209541 5.000000 27.837248 20.162382 -17.837645 -3.635884 15.126849 5.673496 -4.391359 -0.321076 -5.003854 -0.147530 -7.689835 7.668737 -1.875276 18.415043 -6.512728 -3.585003 0.117698 2.302012 0.004640 -7.357863 -18.934511 5.460112 
0.317745 53.817966 -1.512818 -8.061954 2.529058 7.145902 26.423208 -1.693368 -1.661067 -0.987339 2.019529 -3.810125 -5.654277 0.488630 -0.034339 12.687261 -3.119593 3.373708 -6.994365 -8.028564 0.614319 -66.963913 14.049364 -20.198345 -22.148605 -5.000000 34.343353 -20.287855 -2.058766 16.603548 8.318115 7.569001 0.649521 68.965271 -8.645687 -15.692141 22.259003 5.000000 27.773766 20.173038 -17.868528 -3.581150 15.116591 5.673264 -4.391091 -0.340414 -5.031757 -0.135591 -7.661446 7.626416 -1.842972 18.419369 -6.531072 -3.599698 0.097880 2.312715 0.003317 -7.309963 -18.867085 5.477593 
0.315785 53.817966 -1.514777 -8.058307 2.558127 7.145905 26.432735 -1.725590 -1.663842 -1.027261 2.039042 -3.800359 -5.625055 0.477514 -0.042617 12.715492 -3.119530 3.393211 -6.986051 -8.037174 0.624233 -66.964020 14.080139 -20.195784 -22.156698 -5.000000 34.369701 -20.262529 -2.060174 16.559523 8.279371 7.568706 0.651492 69.003471 -8.656384 -15.651437 22.297253 5.000000 27.721186 20.167492 -17.906784 -3.505991 15.110422 5.660984 -4.392646 -0.350096 -5.050879 -0.144146 -7.659811 7.626145 -1.789314 18.448526 -6.540592 -3.631392 0.048621 2.295584 0.049208 -7.259989 -18.865486 5.474473 
0.313830 53.817966 -1.518695 -8.035463 2.577396 7.165855 26.402733 -1.733960 -1.667880 -1.018191 2.039011 -3.819878 -5.624979 0.488630 -0.034339 12.713177 -3.158525 3.393742 -6.945950 -8.077554 0.615865 -67.005722 14.087113 -20.228100 -22.153332 -5.000000 34.404369 -20.288166 -2.091319 16.542646 8.249524 7.607568 0.643315 69.013062 -8.656615 -15.641613 22.310770 5.000000 27.701548 20.205732 -17.849850 -3.468310 15.081980 5.651708 -4.403748 -0.340424 -5.061514 -0.154483 -7.678673 7.622438 -1.800484 18.418505 -6.569833 -3.668484 0.068389 2.294733 0.031219 -7.308243 -18.854294 5.472466 
0.311873 53.817970 -1.522614 -8.012608 2.596663 7.185369 26.362913 -1.751291 -1.675796 -1.009557 2.048736 -3.839396 -5.624979 0.488630 -0.034339 12.720626 -3.197519 3.393739 -6.907046 -8.107055 0.615879 -67.036072 14.102595 -20.245380 -22.152914 -5.000000 34.430435 -20.304070 -2.128645 16.516291 8.230376 7.646461 0.654151 69.022804 -8.647082 -15.631711 22.315365 5.000000 27.681631 20.244616 -17.802134 -3.433904 15.038383 5.624356 -4.428365 -0.321033 -5.072738 -0.165613 -7.695726 7.638674 -1.813046 18.401371 -6.589652 -3.682984 0.048995 2.285133 0.010722 -7.292267 -18.802835 5.542921 
0.314620 53.819149 -1.525356 -8.002842 2.596663 7.185369 26.352606 -1.730861 -1.646459 -1.009468 2.038965 -3.839390 -5.624979 0.488630 -0.034339 12.741248 -3.197583 3.374239 -6.899078 -8.135071 0.628085 -67.055527 14.117627 -20.251421 -22.172840 -5.000000 34.416313 -20.337431 -2.138018 16.523746 8.201109 7.675539 0.655703 69.022316 -8.647293 -15.602418 22.301849 5.000000 27.703674 20.256985 -17.748631 -3.467029 15.038063 5.633634 -4.376912 -0.321102 -5.073335 -0.194877 -7.711747 7.634833 -1.814679 18.401371 -6.589654 -3.682983 0.029608 2.304831 -0.000523 -7.284783 -18.820066 5.515262 
0.320501 53.821106 -1.527313 -8.007386 2.567707 7.165854 26.342737 -1.692711 -1.608847 -1.018357 2.019453 -3.819860 -5.634821 0.477514 -0.042617 12.782547 -3.178149 3.354739 -6.899582 -8.164155 0.631566 -67.054626 14.135601 -20.243828 -22.207190 -5.000000 34.379204 -20.371479 -2.140583 16.549875 8.161791 7.685034 0.647946 69.031387 -8.638042 -15.553464 22.268198 5.000000 27.736322 20.251467 -17.701694 -3.535863 15.055992 5.643428 -4.365376 -0.341331 -5.071847 -0.183548 -7.719176 7.630875 -1.783484 18.414057 -6.581002 -3.660612 0.000107 2.304663 -0.021761 -7.247882 -18.808971 5.534246 
0.325989 53.822670 -1.529272 -8.010695 2.548437 7.145904 26.333088 -1.659678 -1.584375 -1.027342 2.009712 -3.790570 -5.644579 0.467858 -0.041156 12.814067 -3.158715 3.334700 -6.898692 -8.194413 0.625451 -67.054176 14.144588 -20.240030 -22.227127 -5.000000 34.365082 -20.393187 -2.140464 16.562944 8.142788 7.704401 0.658733 69.030731 -8.638320 -15.514411 22.238873 5.000000 27.786779 20.257301 -17.672487 -3.617386 15.054157 5.652198 -4.343577 -0.350150 -5.071259 -0.182751 -7.696856 7.588196 -1.772008 18.412878 -6.580698 -3.630811 -0.019303 2.304576 -0.022893 -7.201478 -18.784685 5.575155 
0.329906 53.822670 -1.531232 -7.980279 2.567981 7.116638 26.314306 -1.671905 -1.577723 -1.035989 1.999987 -3.771050 -5.624979 0.488630 -0.034339 12.813471 -3.178244 3.324946 -6.889174 -8.213909 0.626881 -67.046181 14.151787 -20.246519 -22.203356 -5.000000 34.442940 -20.377398 -2.087385 16.543072 8.143017 7.743442 0.668585 68.991554 -8.647432 -15.514732 22.249493 5.000000 27.846523 20.280804 -17.717001 -3.640135 15.055691 5.613646 -4.371122 -0.408823 -5.066130 -0.139013 -7.670281 7.602965 -1.810110 18.399023 -6.589039 -3.623380 -0.057733 2.294338 -0.015198 -7.209866 -18.853027 5.509301 
0.333823 53.822670 -1.533189 -7.960856 2.577835 7.087372 26.285967 -1.689191 -1.583925 -1.053979 1.980505 -3.751194 -5.615226 0.507942 -0.037258 12.822102 -3.197742 3.325487 -6.869635 -8.223818 0.626254 -67.049088 14.159425 -20.264271 -22.179537 -5.000000 34.517761 -20.354889 -2.045925 16.526413 8.142738 7.782503 0.668683 68.962303 -8.656641 -15.524758 22.266653 5.000000 27.912851 20.314568 -17.760878 -3.668868 15.056826 5.584447 -4.347188 -0.438185 -5.053919 -0.136872 -7.684460 7.578672 -1.842506 18.397060 -6.620965 -3.610047 -0.106995 2.321878 -0.018560 -7.231080 -18.875109 5.431635 
0.336173 53.822670 -1.535151 -7.953172 2.568253 7.067859 26.275600 -1.649908 -1.578064 -1.043964 1.990291 -3.731673 -5.624992 0.507942 -0.037258 12.783062 -3.187962 3.335238 -6.871374 -8.242041 0.638161 -67.065071 14.145026 -20.251293 -22.162590 -5.000000 34.523312 -20.338779 -2.060330 16.528900 8.113109 7.792074 0.660433 68.942139 -8.666287 -15.495664 22.298010 5.000000 27.888918 20.309582 -17.745577 -3.679968 15.054270 5.593790 -4.335110 -0.438208 -5.054127 -0.146626 -7.696547 7.597304 -1.842866 18.379910 -6.608337 -3.588207 -0.116716 2.302250 0.000777 -7.184844 -18.905096 5.458087 
